<?xml version="1.0" standalone="no"?>
<!DOCTYPE svg PUBLIC "-//W3C//DTD SVG 20010904//EN"
 "http://www.w3.org/TR/2001/REC-SVG-20010904/DTD/svg10.dtd">
<svg version="1.0" xmlns="http://www.w3.org/2000/svg"
 width="562.000000pt" height="451.000000pt" viewBox="0 0 562.000000 451.000000"
 preserveAspectRatio="xMidYMid meet">

<g transform="translate(0.000000,451.000000) scale(0.100000,-0.100000)"
fill="#000000" stroke="none">
<path d="M2719 3249 c-217 -23 -416 -114 -573 -260 -74 -70 -153 -166 -183
-223 -14 -27 -14 -28 3 -22 11 4 55 17 99 28 71 19 85 27 130 73 229 234 541
321 856 240 143 -37 319 -148 414 -261 46 -54 59 -62 153 -100 56 -22 102 -39
102 -37 0 12 -49 96 -86 148 -205 289 -566 452 -915 414z"/>
<path d="M2450 2799 c-243 -25 -515 -100 -650 -179 -39 -23 -70 -42 -70 -44 0
-2 48 13 108 34 229 81 404 105 757 105 289 -1 416 -13 600 -60 301 -77 485
-203 485 -332 0 -103 -100 -202 -272 -269 -37 -15 -67 -29 -65 -30 4 -5 168
40 241 65 71 25 192 89 242 128 96 76 122 185 65 274 -92 146 -419 269 -820
309 -121 12 -499 11 -621 -1z"/>
<path d="M2637 2673 c-3 -5 -19 -56 -35 -114 -16 -57 -59 -205 -95 -329 -136
-468 -277 -959 -277 -963 0 -3 71 28 158 68 l157 73 22 69 c12 37 44 147 72
243 160 556 264 916 268 927 6 14 -28 21 -158 29 -61 3 -109 2 -112 -3z"/>
<path d="M1950 2603 c-30 -8 -60 -19 -67 -24 -15 -13 -49 -163 -58 -255 -21
-225 67 -500 223 -694 58 -73 162 -170 182 -170 4 0 16 29 25 64 l18 65 -75
80 c-130 140 -206 303 -229 493 -16 130 6 304 51 406 11 24 20 46 20 48 0 7
-35 2 -90 -13z"/>
<path d="M3533 2219 c-130 -61 -421 -122 -639 -135 l-112 -7 -10 -35 c-6 -20
-9 -38 -7 -40 8 -8 227 18 325 38 198 42 448 138 496 191 21 23 23 24 -53 -12z"/>
<path d="M3780 2140 c-14 -10 -46 -29 -72 -41 -41 -19 -48 -27 -58 -68 -60
-241 -273 -479 -509 -570 -125 -48 -227 -65 -360 -57 -64 3 -131 9 -148 12
-28 5 -34 3 -42 -18 -6 -16 -28 -31 -66 -47 -68 -28 -65 -31 62 -63 124 -31
361 -31 476 0 305 83 553 294 673 572 41 95 77 227 72 269 l-3 30 -25 -19z"/>
</g>
</svg>
