<svg xmlns="http://www.w3.org/2000/svg" version="1.1" xmlns:xlink="http://www.w3.org/1999/xlink" xmlns:svgjs="http://svgjs.dev/svgjs" width="2000" height="1250" viewBox="0 0 2000 1250"><g transform="matrix(1,0,0,1,0.9247043442086351,0.5060728744939524)"><svg viewBox="0 0 395 247" data-background-color="#000000" preserveAspectRatio="xMidYMid meet" height="1250" width="2000" xmlns="http://www.w3.org/2000/svg" xmlns:xlink="http://www.w3.org/1999/xlink"><g id="tight-bounds" transform="matrix(1,0,0,1,-0.18262910798119947,-0.09999999999999432)"><svg viewBox="0 0 395.3652582159624 247.2" height="247.2" width="395.3652582159624"><g><svg viewBox="0 0 395.3652582159624 247.2" height="247.2" width="395.3652582159624"><g><svg viewBox="0 0 395.3652582159624 247.2" height="247.2" width="395.3652582159624"><g id="textblocktransform"><svg viewBox="0 0 395.3652582159624 247.2" height="247.2" width="395.3652582159624" id="textblock"><g><svg viewBox="0 0 395.3652582159624 247.2" height="247.2" width="395.3652582159624"><g transform="matrix(1,0,0,1,0,0)"><svg width="395.3652582159624" viewBox="3.78 -31.95 51.089999999999996 31.95" height="247.2" data-palette-color="#89939e"><path d="M15.65-10.63L6.48-10.63 6.48-14.08 15.55-14.08Q18.82-14.08 20.3-15.71 21.78-17.35 21.78-20.23L21.78-20.23 21.78-22.4Q21.78-25.33 20.31-26.93 18.85-28.53 15.6-28.53L15.6-28.53 6.45-28.53 6.45-31.95 15.68-31.95Q21.03-31.95 23.46-29.44 25.9-26.93 25.9-22.53L25.9-22.53 25.9-20.13Q25.9-15.68 23.44-13.15 20.98-10.63 15.65-10.63L15.65-10.63ZM7.88 0L3.78 0 3.78-31.95 7.85-31.95 7.85-13.05 7.88-11.2 7.88 0ZM45.07 0L34.62 0 34.62-3.43 44.67-3.43Q47.92-3.43 49.29-4.81 50.65-6.2 50.65-8.65L50.65-8.65 50.65-9.55Q50.65-12.05 49.26-13.43 47.87-14.8 44.42-14.8L44.42-14.8 34.65-14.8 34.65-18.07 44.37-18.07Q47.45-18.07 48.76-19.41 50.07-20.75 50.07-23.13L50.07-23.13 50.07-23.58Q50.07-25.93 48.81-27.24 47.55-28.55 44.35-28.55L44.35-28.55 34.55-28.55 34.55-31.95 44.72-31.95Q49.82-31.95 52.02-29.93 54.22-27.9 54.22-24.23L54.22-24.23 54.22-23.73Q54.22-20.8 52.82-19.13 51.42-17.45 48.47-17.13L48.47-17.13 48.45-16.98Q51.82-16.48 53.35-14.63 54.87-12.78 54.87-9.47L54.87-9.47 54.87-8.45Q54.87-4.48 52.57-2.24 50.27 0 45.07 0L45.07 0ZM35.9 0L31.8 0 31.8-31.95 35.9-31.95 35.9 0Z" opacity="1" transform="matrix(1,0,0,1,0,0)" fill="#ffffff" class="wordmark-text-0" data-fill-palette-color="primary" id="text-0"></path></svg></g></svg></g></svg></g></svg></g></svg></g><defs></defs></svg><rect width="395.3652582159624" height="247.2" fill="none" stroke="none" visibility="hidden"></rect></g></svg></g></svg>